<svg xmlns="http://www.w3.org/2000/svg" viewBox="0 0 367.5 75"><defs><style>.cls-1{fill:#fff;}</style></defs><title>Asset 2</title><g id="Layer_2" data-name="Layer 2"><g id="Layer_1-2" data-name="Layer 1"><path class="cls-1" d="M75,75H52.5V67.5H45v-15H30V75H7.5V67.5H0V7.5H7.5V0h15V7.5H30V15H45V7.5h7.5V0h15V7.5H75ZM22.5,22.5V15H15V7.5H7.5V60H15V22.5ZM30,30V22.5H22.5V30Zm7.5,7.5V30H30v7.5ZM45,30V22.5H37.5V30ZM60,60V7.5H52.5V15H45v7.5h7.5V60Z"/><path class="cls-1" d="M135,67.5h-7.5V75H90V67.5H82.5V60H75V7.5h7.5V0h15V7.5h15V0h15V7.5H135Zm-45-15V7.5H82.5v45ZM112.5,60V52.5H90V60Zm7.5-7.5V7.5h-7.5v45Z"/><path class="cls-1" d="M195,67.5h-7.5V75H150V67.5h-7.5V60H135V15h7.5V7.5H150V0h37.5V7.5H195Zm-45-15V15h-7.5V52.5ZM180,15V7.5H150V15Zm-7.5,45V52.5H150V60Zm7.5-7.5V30H165v7.5h7.5v15Z"/><path class="cls-1" d="M247.5,75h-45V67.5H195V7.5h7.5V0H240V7.5h7.5v15H240V30h7.5V45H240v7.5h7.5Zm-15-15V52.5H210v-15h22.5V30H210V15h22.5V7.5h-30V60Z"/><path class="cls-1" d="M307.5,67.5H300V75H255V67.5h-7.5v-15H255v-15h-7.5V15H255V7.5h7.5V0H300V7.5h7.5V30H300v7.5h7.5ZM262.5,30V15H255V30ZM285,60V52.5H255V60Zm7.5-45V7.5h-30V15ZM285,37.5V30H262.5v7.5Zm7.5,15v-15H285v15Z"/><path class="cls-1" d="M367.5,75H345V67.5h-7.5V75H315V67.5h-7.5V7.5H315V0h15V7.5h15V0h15V7.5h7.5Zm-15-15V7.5H345V30H322.5V7.5H315V60h7.5V37.5H345V60Z"/><path class="cls-1" d="M75,75H52.5V67.5H45v-15H30V75H7.5V67.5H0V7.5H7.5V0h15V7.5H30V15H45V7.5h7.5V0h15V7.5H75ZM22.5,22.5V15H15V7.5H7.5V60H15V22.5ZM30,30V22.5H22.5V30Zm7.5,7.5V30H30v7.5ZM45,30V22.5H37.5V30ZM60,60V7.5H52.5V15H45v7.5h7.5V60Z"/><path class="cls-1" d="M135,67.5h-7.5V75H90V67.5H82.5V60H75V7.5h7.5V0h15V7.5h15V0h15V7.5H135Zm-45-15V7.5H82.5v45ZM112.5,60V52.5H90V60Zm7.5-7.5V7.5h-7.5v45Z"/><path class="cls-1" d="M195,67.5h-7.5V75H150V67.5h-7.5V60H135V15h7.5V7.5H150V0h37.5V7.5H195Zm-45-15V15h-7.5V52.5ZM180,15V7.5H150V15Zm-7.5,45V52.5H150V60Zm7.5-7.5V30H165v7.5h7.5v15Z"/><path class="cls-1" d="M247.5,75h-45V67.5H195V7.5h7.5V0H240V7.5h7.5v15H240V30h7.5V45H240v7.5h7.5Zm-15-15V52.5H210v-15h22.5V30H210V15h22.5V7.5h-30V60Z"/><path class="cls-1" d="M307.5,67.5H300V75H255V67.5h-7.5v-15H255v-15h-7.5V15H255V7.5h7.5V0H300V7.5h7.5V30H300v7.5h7.5ZM262.5,30V15H255V30ZM285,60V52.5H255V60Zm7.5-45V7.5h-30V15ZM285,37.5V30H262.5v7.5Zm7.5,15v-15H285v15Z"/><path class="cls-1" d="M367.5,75H345V67.5h-7.5V75H315V67.5h-7.5V7.5H315V0h15V7.5h15V0h15V7.5h7.5Zm-15-15V7.5H345V30H322.5V7.5H315V60h7.5V37.5H345V60Z"/><path class="cls-1" d="M75,75H52.5V67.5H45v-15H30V75H7.5V67.5H0V7.5H7.5V0h15V7.5H30V15H45V7.5h7.5V0h15V7.5H75ZM22.5,22.5V15H15V7.5H7.5V60H15V22.5ZM30,30V22.5H22.5V30Zm7.5,7.5V30H30v7.5ZM45,30V22.5H37.5V30ZM60,60V7.5H52.5V15H45v7.5h7.5V60Z"/><path class="cls-1" d="M135,67.5h-7.5V75H90V67.5H82.5V60H75V7.5h7.5V0h15V7.5h15V0h15V7.5H135Zm-45-15V7.5H82.5v45ZM112.5,60V52.5H90V60Zm7.5-7.5V7.5h-7.5v45Z"/><path class="cls-1" d="M195,67.5h-7.5V75H150V67.5h-7.5V60H135V15h7.5V7.5H150V0h37.5V7.5H195Zm-45-15V15h-7.5V52.5ZM180,15V7.5H150V15Zm-7.5,45V52.5H150V60Zm7.5-7.5V30H165v7.5h7.5v15Z"/><path class="cls-1" d="M247.5,75h-45V67.5H195V7.5h7.5V0H240V7.5h7.5v15H240V30h7.5V45H240v7.5h7.5Zm-15-15V52.5H210v-15h22.5V30H210V15h22.5V7.5h-30V60Z"/><path class="cls-1" d="M307.5,67.5H300V75H255V67.5h-7.5v-15H255v-15h-7.5V15H255V7.5h7.5V0H300V7.5h7.5V30H300v7.5h7.5ZM262.5,30V15H255V30ZM285,60V52.5H255V60Zm7.5-45V7.5h-30V15ZM285,37.5V30H262.5v7.5Zm7.5,15v-15H285v15Z"/><path class="cls-1" d="M367.5,75H345V67.5h-7.5V75H315V67.5h-7.5V7.5H315V0h15V7.5h15V0h15V7.5h7.5Zm-15-15V7.5H345V30H322.5V7.5H315V60h7.5V37.5H345V60Z"/><path class="cls-1" d="M75,75H52.5V67.5H45v-15H30V75H7.5V67.5H0V7.5H7.5V0h15V7.5H30V15H45V7.5h7.5V0h15V7.5H75ZM22.5,22.5V15H15V7.5H7.5V60H15V22.5ZM30,30V22.5H22.5V30Zm7.5,7.5V30H30v7.5ZM45,30V22.5H37.5V30ZM60,60V7.5H52.5V15H45v7.5h7.5V60Z"/><path class="cls-1" d="M135,67.5h-7.5V75H90V67.5H82.5V60H75V7.5h7.5V0h15V7.5h15V0h15V7.5H135Zm-45-15V7.5H82.5v45ZM112.5,60V52.5H90V60Zm7.5-7.5V7.5h-7.5v45Z"/><path class="cls-1" d="M195,67.5h-7.5V75H150V67.5h-7.5V60H135V15h7.5V7.5H150V0h37.5V7.5H195Zm-45-15V15h-7.5V52.5ZM180,15V7.5H150V15Zm-7.5,45V52.5H150V60Zm7.5-7.5V30H165v7.5h7.5v15Z"/><path class="cls-1" d="M247.5,75h-45V67.5H195V7.5h7.5V0H240V7.5h7.5v15H240V30h7.5V45H240v7.5h7.5Zm-15-15V52.5H210v-15h22.5V30H210V15h22.5V7.5h-30V60Z"/><path class="cls-1" d="M307.5,67.5H300V75H255V67.5h-7.5v-15H255v-15h-7.5V15H255V7.5h7.5V0H300V7.5h7.5V30H300v7.5h7.5ZM262.5,30V15H255V30ZM285,60V52.5H255V60Zm7.5-45V7.5h-30V15ZM285,37.5V30H262.5v7.5Zm7.5,15v-15H285v15Z"/><path class="cls-1" d="M367.5,75H345V67.5h-7.5V75H315V67.5h-7.5V7.5H315V0h15V7.5h15V0h15V7.5h7.5Zm-15-15V7.5H345V30H322.5V7.5H315V60h7.5V37.5H345V60Z"/><path class="cls-1" d="M75,75H52.5V67.5H45v-15H30V75H7.5V67.5H0V7.5H7.5V0h15V7.5H30V15H45V7.5h7.5V0h15V7.5H75ZM22.5,22.5V15H15V7.5H7.5V60H15V22.5ZM30,30V22.5H22.5V30Zm7.5,7.5V30H30v7.5ZM45,30V22.5H37.5V30ZM60,60V7.5H52.5V15H45v7.5h7.5V60Z"/><path class="cls-1" d="M135,67.5h-7.5V75H90V67.5H82.5V60H75V7.5h7.5V0h15V7.5h15V0h15V7.5H135Zm-45-15V7.5H82.5v45ZM112.5,60V52.5H90V60Zm7.5-7.5V7.5h-7.5v45Z"/><path class="cls-1" d="M195,67.5h-7.5V75H150V67.5h-7.5V60H135V15h7.5V7.5H150V0h37.5V7.5H195Zm-45-15V15h-7.5V52.5ZM180,15V7.5H150V15Zm-7.5,45V52.5H150V60Zm7.5-7.5V30H165v7.5h7.5v15Z"/><path class="cls-1" d="M247.5,75h-45V67.5H195V7.5h7.5V0H240V7.5h7.5v15H240V30h7.5V45H240v7.5h7.5Zm-15-15V52.5H210v-15h22.5V30H210V15h22.5V7.5h-30V60Z"/><path class="cls-1" d="M307.5,67.5H300V75H255V67.5h-7.5v-15H255v-15h-7.5V15H255V7.5h7.5V0H300V7.5h7.5V30H300v7.5h7.5ZM262.5,30V15H255V30ZM285,60V52.5H255V60Zm7.5-45V7.5h-30V15ZM285,37.5V30H262.5v7.5Zm7.5,15v-15H285v15Z"/><path class="cls-1" d="M367.5,75H345V67.5h-7.5V75H315V67.5h-7.5V7.5H315V0h15V7.5h15V0h15V7.5h7.5Zm-15-15V7.5H345V30H322.5V7.5H315V60h7.5V37.5H345V60Z"/><path class="cls-1" d="M75,75H52.5V67.5H45v-15H30V75H7.5V67.5H0V7.5H7.5V0h15V7.5H30V15H45V7.5h7.5V0h15V7.5H75ZM22.5,22.5V15H15V7.5H7.5V60H15V22.5ZM30,30V22.5H22.5V30Zm7.5,7.5V30H30v7.5ZM45,30V22.5H37.5V30ZM60,60V7.5H52.5V15H45v7.5h7.5V60Z"/><path class="cls-1" d="M135,67.5h-7.5V75H90V67.5H82.5V60H75V7.5h7.5V0h15V7.5h15V0h15V7.5H135Zm-45-15V7.5H82.5v45ZM112.5,60V52.5H90V60Zm7.5-7.5V7.5h-7.5v45Z"/><path class="cls-1" d="M195,67.5h-7.5V75H150V67.5h-7.5V60H135V15h7.5V7.5H150V0h37.5V7.5H195Zm-45-15V15h-7.5V52.5ZM180,15V7.5H150V15Zm-7.5,45V52.5H150V60Zm7.5-7.5V30H165v7.5h7.5v15Z"/><path class="cls-1" d="M247.5,75h-45V67.5H195V7.5h7.5V0H240V7.5h7.5v15H240V30h7.5V45H240v7.5h7.5Zm-15-15V52.5H210v-15h22.5V30H210V15h22.5V7.5h-30V60Z"/><path class="cls-1" d="M307.5,67.5H300V75H255V67.5h-7.5v-15H255v-15h-7.5V15H255V7.5h7.5V0H300V7.5h7.5V30H300v7.5h7.5ZM262.5,30V15H255V30ZM285,60V52.5H255V60Zm7.5-45V7.5h-30V15ZM285,37.5V30H262.5v7.5Zm7.5,15v-15H285v15Z"/><path class="cls-1" d="M367.5,75H345V67.5h-7.5V75H315V67.5h-7.5V7.5H315V0h15V7.5h15V0h15V7.5h7.5Zm-15-15V7.5H345V30H322.5V7.5H315V60h7.5V37.5H345V60Z"/><path class="cls-1" d="M75,75H52.5V67.5H45v-15H30V75H7.5V67.5H0V7.5H7.5V0h15V7.5H30V15H45V7.5h7.5V0h15V7.5H75ZM22.5,22.5V15H15V7.5H7.5V60H15V22.5ZM30,30V22.5H22.5V30Zm7.5,7.5V30H30v7.5ZM45,30V22.5H37.5V30ZM60,60V7.5H52.5V15H45v7.5h7.5V60Z"/><path class="cls-1" d="M135,67.5h-7.5V75H90V67.5H82.5V60H75V7.5h7.5V0h15V7.5h15V0h15V7.5H135Zm-45-15V7.5H82.5v45ZM112.5,60V52.5H90V60Zm7.5-7.5V7.5h-7.5v45Z"/><path class="cls-1" d="M195,67.5h-7.5V75H150V67.5h-7.5V60H135V15h7.5V7.5H150V0h37.5V7.5H195Zm-45-15V15h-7.5V52.5ZM180,15V7.5H150V15Zm-7.5,45V52.5H150V60Zm7.5-7.5V30H165v7.5h7.5v15Z"/><path class="cls-1" d="M247.5,75h-45V67.5H195V7.5h7.5V0H240V7.5h7.5v15H240V30h7.5V45H240v7.5h7.5Zm-15-15V52.5H210v-15h22.5V30H210V15h22.5V7.5h-30V60Z"/><path class="cls-1" d="M307.5,67.5H300V75H255V67.5h-7.5v-15H255v-15h-7.5V15H255V7.5h7.5V0H300V7.5h7.5V30H300v7.5h7.5ZM262.5,30V15H255V30ZM285,60V52.5H255V60Zm7.5-45V7.5h-30V15ZM285,37.5V30H262.5v7.5Zm7.5,15v-15H285v15Z"/><path class="cls-1" d="M367.5,75H345V67.5h-7.5V75H315V67.5h-7.5V7.5H315V0h15V7.5h15V0h15V7.5h7.5Zm-15-15V7.5H345V30H322.5V7.5H315V60h7.5V37.5H345V60Z"/><path class="cls-1" d="M75,75H52.5V67.5H45v-15H30V75H7.5V67.5H0V7.5H7.5V0h15V7.5H30V15H45V7.5h7.5V0h15V7.5H75ZM22.5,22.5V15H15V7.5H7.5V60H15V22.5ZM30,30V22.5H22.5V30Zm7.5,7.5V30H30v7.5ZM45,30V22.5H37.5V30ZM60,60V7.5H52.5V15H45v7.5h7.5V60Z"/><path class="cls-1" d="M135,67.5h-7.5V75H90V67.5H82.5V60H75V7.5h7.5V0h15V7.5h15V0h15V7.5H135Zm-45-15V7.5H82.5v45ZM112.5,60V52.5H90V60Zm7.5-7.5V7.5h-7.5v45Z"/><path class="cls-1" d="M195,67.5h-7.5V75H150V67.5h-7.5V60H135V15h7.5V7.5H150V0h37.5V7.5H195Zm-45-15V15h-7.5V52.5ZM180,15V7.5H150V15Zm-7.5,45V52.5H150V60Zm7.5-7.5V30H165v7.5h7.5v15Z"/><path class="cls-1" d="M247.5,75h-45V67.5H195V7.5h7.5V0H240V7.5h7.5v15H240V30h7.5V45H240v7.5h7.5Zm-15-15V52.5H210v-15h22.5V30H210V15h22.5V7.5h-30V60Z"/><path class="cls-1" d="M307.5,67.5H300V75H255V67.5h-7.5v-15H255v-15h-7.5V15H255V7.5h7.5V0H300V7.5h7.5V30H300v7.5h7.5ZM262.5,30V15H255V30ZM285,60V52.5H255V60Zm7.5-45V7.5h-30V15ZM285,37.5V30H262.5v7.5Zm7.5,15v-15H285v15Z"/><path class="cls-1" d="M367.5,75H345V67.5h-7.5V75H315V67.5h-7.5V7.5H315V0h15V7.5h15V0h15V7.5h7.5Zm-15-15V7.5H345V30H322.5V7.5H315V60h7.5V37.5H345V60Z"/><path class="cls-1" d="M75,75H52.5V67.5H45v-15H30V75H7.5V67.5H0V7.5H7.5V0h15V7.5H30V15H45V7.5h7.5V0h15V7.5H75ZM22.5,22.5V15H15V7.5H7.5V60H15V22.5ZM30,30V22.5H22.5V30Zm7.5,7.5V30H30v7.5ZM45,30V22.5H37.5V30ZM60,60V7.5H52.5V15H45v7.5h7.5V60Z"/><path class="cls-1" d="M135,67.5h-7.5V75H90V67.5H82.5V60H75V7.5h7.5V0h15V7.5h15V0h15V7.5H135Zm-45-15V7.5H82.5v45ZM112.5,60V52.5H90V60Zm7.5-7.5V7.5h-7.5v45Z"/><path class="cls-1" d="M195,67.5h-7.5V75H150V67.5h-7.5V60H135V15h7.5V7.5H150V0h37.5V7.5H195Zm-45-15V15h-7.5V52.5ZM180,15V7.5H150V15Zm-7.5,45V52.5H150V60Zm7.5-7.5V30H165v7.5h7.5v15Z"/><path class="cls-1" d="M247.5,75h-45V67.5H195V7.5h7.5V0H240V7.5h7.5v15H240V30h7.5V45H240v7.5h7.5Zm-15-15V52.5H210v-15h22.5V30H210V15h22.5V7.5h-30V60Z"/><path class="cls-1" d="M307.5,67.5H300V75H255V67.5h-7.5v-15H255v-15h-7.5V15H255V7.5h7.5V0H300V7.5h7.5V30H300v7.5h7.5ZM262.5,30V15H255V30ZM285,60V52.5H255V60Zm7.5-45V7.5h-30V15ZM285,37.5V30H262.5v7.5Zm7.5,15v-15H285v15Z"/><path class="cls-1" d="M367.5,75H345V67.5h-7.5V75H315V67.5h-7.5V7.5H315V0h15V7.5h15V0h15V7.5h7.5Zm-15-15V7.5H345V30H322.5V7.5H315V60h7.5V37.5H345V60Z"/><path class="cls-1" d="M75,75H52.5V67.5H45v-15H30V75H7.5V67.5H0V7.5H7.5V0h15V7.5H30V15H45V7.5h7.5V0h15V7.5H75ZM22.5,22.5V15H15V7.5H7.5V60H15V22.5ZM30,30V22.5H22.5V30Zm7.5,7.5V30H30v7.5ZM45,30V22.5H37.5V30ZM60,60V7.5H52.5V15H45v7.5h7.5V60Z"/><path class="cls-1" d="M135,67.5h-7.5V75H90V67.5H82.5V60H75V7.5h7.5V0h15V7.5h15V0h15V7.5H135Zm-45-15V7.5H82.5v45ZM112.5,60V52.5H90V60Zm7.5-7.5V7.5h-7.5v45Z"/><path class="cls-1" d="M195,67.5h-7.5V75H150V67.5h-7.5V60H135V15h7.5V7.5H150V0h37.5V7.5H195Zm-45-15V15h-7.5V52.5ZM180,15V7.5H150V15Zm-7.5,45V52.5H150V60Zm7.5-7.5V30H165v7.5h7.5v15Z"/><path class="cls-1" d="M247.5,75h-45V67.5H195V7.5h7.5V0H240V7.5h7.5v15H240V30h7.5V45H240v7.5h7.5Zm-15-15V52.5H210v-15h22.5V30H210V15h22.5V7.5h-30V60Z"/><path class="cls-1" d="M307.5,67.5H300V75H255V67.5h-7.5v-15H255v-15h-7.5V15H255V7.5h7.5V0H300V7.5h7.5V30H300v7.5h7.5ZM262.5,30V15H255V30ZM285,60V52.5H255V60Zm7.5-45V7.5h-30V15ZM285,37.5V30H262.5v7.5Zm7.5,15v-15H285v15Z"/><path class="cls-1" d="M367.5,75H345V67.5h-7.5V75H315V67.5h-7.5V7.5H315V0h15V7.5h15V0h15V7.5h7.5Zm-15-15V7.5H345V30H322.5V7.5H315V60h7.5V37.5H345V60Z"/><path class="cls-1" d="M75,75H52.5V67.5H45v-15H30V75H7.5V67.5H0V7.5H7.5V0h15V7.5H30V15H45V7.5h7.5V0h15V7.5H75ZM22.5,22.5V15H15V7.5H7.5V60H15V22.5ZM30,30V22.5H22.5V30Zm7.5,7.5V30H30v7.5ZM45,30V22.5H37.5V30ZM60,60V7.5H52.5V15H45v7.5h7.5V60Z"/><path class="cls-1" d="M135,67.5h-7.5V75H90V67.5H82.5V60H75V7.5h7.5V0h15V7.5h15V0h15V7.5H135Zm-45-15V7.5H82.5v45ZM112.5,60V52.5H90V60Zm7.5-7.5V7.5h-7.5v45Z"/><path class="cls-1" d="M195,67.5h-7.5V75H150V67.5h-7.5V60H135V15h7.5V7.5H150V0h37.5V7.5H195Zm-45-15V15h-7.5V52.5ZM180,15V7.5H150V15Zm-7.5,45V52.5H150V60Zm7.5-7.5V30H165v7.5h7.5v15Z"/><path class="cls-1" d="M247.5,75h-45V67.5H195V7.5h7.5V0H240V7.5h7.5v15H240V30h7.5V45H240v7.5h7.5Zm-15-15V52.5H210v-15h22.5V30H210V15h22.5V7.5h-30V60Z"/><path class="cls-1" d="M307.5,67.5H300V75H255V67.5h-7.5v-15H255v-15h-7.5V15H255V7.5h7.5V0H300V7.5h7.5V30H300v7.5h7.5ZM262.5,30V15H255V30ZM285,60V52.5H255V60Zm7.5-45V7.5h-30V15ZM285,37.5V30H262.5v7.5Zm7.5,15v-15H285v15Z"/><path class="cls-1" d="M367.5,75H345V67.5h-7.5V75H315V67.5h-7.5V7.5H315V0h15V7.5h15V0h15V7.5h7.5Zm-15-15V7.5H345V30H322.5V7.5H315V60h7.5V37.5H345V60Z"/><path class="cls-1" d="M75,75H52.5V67.5H45v-15H30V75H7.5V67.5H0V7.5H7.5V0h15V7.5H30V15H45V7.5h7.5V0h15V7.5H75ZM22.5,22.5V15H15V7.5H7.5V60H15V22.5ZM30,30V22.5H22.5V30Zm7.5,7.5V30H30v7.5ZM45,30V22.5H37.5V30ZM60,60V7.5H52.5V15H45v7.5h7.5V60Z"/><path class="cls-1" d="M135,67.5h-7.5V75H90V67.5H82.5V60H75V7.5h7.5V0h15V7.5h15V0h15V7.5H135Zm-45-15V7.5H82.5v45ZM112.5,60V52.5H90V60Zm7.5-7.5V7.5h-7.5v45Z"/><path class="cls-1" d="M195,67.5h-7.5V75H150V67.5h-7.5V60H135V15h7.5V7.5H150V0h37.5V7.5H195Zm-45-15V15h-7.5V52.5ZM180,15V7.5H150V15Zm-7.5,45V52.5H150V60Zm7.5-7.5V30H165v7.5h7.5v15Z"/><path class="cls-1" d="M247.5,75h-45V67.5H195V7.5h7.5V0H240V7.5h7.5v15H240V30h7.5V45H240v7.5h7.5Zm-15-15V52.5H210v-15h22.5V30H210V15h22.5V7.5h-30V60Z"/><path class="cls-1" d="M307.5,67.5H300V75H255V67.5h-7.5v-15H255v-15h-7.5V15H255V7.5h7.5V0H300V7.5h7.5V30H300v7.5h7.5ZM262.5,30V15H255V30ZM285,60V52.5H255V60Zm7.5-45V7.5h-30V15ZM285,37.5V30H262.5v7.5Zm7.5,15v-15H285v15Z"/><path class="cls-1" d="M367.5,75H345V67.5h-7.5V75H315V67.5h-7.5V7.5H315V0h15V7.5h15V0h15V7.5h7.5Zm-15-15V7.5H345V30H322.5V7.5H315V60h7.5V37.5H345V60Z"/><path class="cls-1" d="M75,75H52.5V67.5H45v-15H30V75H7.5V67.5H0V7.5H7.5V0h15V7.5H30V15H45V7.5h7.5V0h15V7.5H75ZM22.5,22.5V15H15V7.5H7.5V60H15V22.5ZM30,30V22.5H22.5V30Zm7.5,7.5V30H30v7.5ZM45,30V22.5H37.5V30ZM60,60V7.5H52.5V15H45v7.5h7.5V60Z"/><path class="cls-1" d="M135,67.5h-7.5V75H90V67.5H82.5V60H75V7.5h7.5V0h15V7.5h15V0h15V7.5H135Zm-45-15V7.5H82.5v45ZM112.5,60V52.5H90V60Zm7.5-7.5V7.5h-7.5v45Z"/><path class="cls-1" d="M195,67.5h-7.5V75H150V67.5h-7.5V60H135V15h7.5V7.5H150V0h37.5V7.5H195Zm-45-15V15h-7.5V52.5ZM180,15V7.5H150V15Zm-7.5,45V52.5H150V60Zm7.5-7.5V30H165v7.5h7.5v15Z"/><path class="cls-1" d="M247.5,75h-45V67.5H195V7.5h7.5V0H240V7.5h7.5v15H240V30h7.5V45H240v7.5h7.5Zm-15-15V52.5H210v-15h22.5V30H210V15h22.5V7.5h-30V60Z"/><path class="cls-1" d="M307.5,67.5H300V75H255V67.5h-7.5v-15H255v-15h-7.5V15H255V7.5h7.5V0H300V7.5h7.5V30H300v7.5h7.5ZM262.5,30V15H255V30ZM285,60V52.5H255V60Zm7.5-45V7.5h-30V15ZM285,37.5V30H262.5v7.5Zm7.5,15v-15H285v15Z"/><path class="cls-1" d="M367.5,75H345V67.5h-7.5V75H315V67.5h-7.5V7.5H315V0h15V7.5h15V0h15V7.5h7.5Zm-15-15V7.5H345V30H322.5V7.5H315V60h7.5V37.5H345V60Z"/><path class="cls-1" d="M75,75H52.5V67.5H45v-15H30V75H7.5V67.5H0V7.5H7.5V0h15V7.5H30V15H45V7.5h7.5V0h15V7.5H75ZM22.5,22.5V15H15V7.5H7.5V60H15V22.5ZM30,30V22.5H22.5V30Zm7.5,7.5V30H30v7.5ZM45,30V22.5H37.5V30ZM60,60V7.5H52.5V15H45v7.5h7.5V60Z"/><path class="cls-1" d="M135,67.5h-7.5V75H90V67.5H82.5V60H75V7.5h7.5V0h15V7.5h15V0h15V7.5H135Zm-45-15V7.5H82.5v45ZM112.5,60V52.5H90V60Zm7.5-7.5V7.5h-7.5v45Z"/><path class="cls-1" d="M195,67.5h-7.5V75H150V67.5h-7.5V60H135V15h7.5V7.5H150V0h37.5V7.5H195Zm-45-15V15h-7.5V52.5ZM180,15V7.5H150V15Zm-7.5,45V52.5H150V60Zm7.5-7.5V30H165v7.5h7.5v15Z"/><path class="cls-1" d="M247.5,75h-45V67.5H195V7.5h7.5V0H240V7.5h7.5v15H240V30h7.5V45H240v7.5h7.5Zm-15-15V52.5H210v-15h22.5V30H210V15h22.5V7.5h-30V60Z"/><path class="cls-1" d="M307.5,67.5H300V75H255V67.5h-7.5v-15H255v-15h-7.5V15H255V7.5h7.5V0H300V7.5h7.5V30H300v7.5h7.5ZM262.5,30V15H255V30ZM285,60V52.5H255V60Zm7.5-45V7.5h-30V15ZM285,37.5V30H262.5v7.5Zm7.5,15v-15H285v15Z"/><path class="cls-1" d="M367.5,75H345V67.5h-7.5V75H315V67.5h-7.5V7.5H315V0h15V7.5h15V0h15V7.5h7.5Zm-15-15V7.5H345V30H322.5V7.5H315V60h7.5V37.5H345V60Z"/><path class="cls-1" d="M75,75H52.5V67.5H45v-15H30V75H7.5V67.5H0V7.5H7.5V0h15V7.5H30V15H45V7.5h7.5V0h15V7.5H75ZM22.5,22.5V15H15V7.5H7.5V60H15V22.5ZM30,30V22.5H22.5V30Zm7.5,7.5V30H30v7.5ZM45,30V22.5H37.5V30ZM60,60V7.5H52.5V15H45v7.5h7.5V60Z"/><path class="cls-1" d="M135,67.5h-7.5V75H90V67.5H82.5V60H75V7.5h7.5V0h15V7.5h15V0h15V7.5H135Zm-45-15V7.5H82.5v45ZM112.5,60V52.5H90V60Zm7.5-7.5V7.5h-7.5v45Z"/><path class="cls-1" d="M195,67.5h-7.5V75H150V67.5h-7.5V60H135V15h7.5V7.5H150V0h37.5V7.5H195Zm-45-15V15h-7.5V52.5ZM180,15V7.5H150V15Zm-7.5,45V52.5H150V60Zm7.5-7.5V30H165v7.5h7.5v15Z"/><path class="cls-1" d="M247.5,75h-45V67.5H195V7.5h7.5V0H240V7.5h7.5v15H240V30h7.5V45H240v7.5h7.5Zm-15-15V52.5H210v-15h22.5V30H210V15h22.5V7.5h-30V60Z"/><path class="cls-1" d="M307.5,67.5H300V75H255V67.5h-7.5v-15H255v-15h-7.5V15H255V7.5h7.5V0H300V7.5h7.5V30H300v7.5h7.5ZM262.5,30V15H255V30ZM285,60V52.5H255V60Zm7.5-45V7.5h-30V15ZM285,37.5V30H262.5v7.5Zm7.5,15v-15H285v15Z"/><path class="cls-1" d="M367.5,75H345V67.5h-7.5V75H315V67.5h-7.5V7.5H315V0h15V7.5h15V0h15V7.5h7.5Zm-15-15V7.5H345V30H322.5V7.5H315V60h7.5V37.5H345V60Z"/><path class="cls-1" d="M75,75H52.5V67.5H45v-15H30V75H7.5V67.5H0V7.5H7.5V0h15V7.5H30V15H45V7.5h7.5V0h15V7.5H75ZM22.5,22.5V15H15V7.5H7.5V60H15V22.5ZM30,30V22.5H22.5V30Zm7.5,7.5V30H30v7.5ZM45,30V22.5H37.5V30ZM60,60V7.5H52.5V15H45v7.5h7.5V60Z"/><path class="cls-1" d="M135,67.5h-7.5V75H90V67.5H82.5V60H75V7.5h7.5V0h15V7.5h15V0h15V7.5H135Zm-45-15V7.5H82.5v45ZM112.5,60V52.5H90V60Zm7.5-7.5V7.5h-7.5v45Z"/><path class="cls-1" d="M195,67.5h-7.5V75H150V67.5h-7.5V60H135V15h7.5V7.5H150V0h37.5V7.5H195Zm-45-15V15h-7.5V52.5ZM180,15V7.5H150V15Zm-7.5,45V52.5H150V60Zm7.5-7.5V30H165v7.5h7.5v15Z"/><path class="cls-1" d="M247.5,75h-45V67.5H195V7.5h7.5V0H240V7.5h7.5v15H240V30h7.5V45H240v7.5h7.5Zm-15-15V52.5H210v-15h22.5V30H210V15h22.5V7.5h-30V60Z"/><path class="cls-1" d="M307.5,67.5H300V75H255V67.5h-7.5v-15H255v-15h-7.5V15H255V7.5h7.5V0H300V7.5h7.5V30H300v7.5h7.5ZM262.5,30V15H255V30ZM285,60V52.5H255V60Zm7.5-45V7.5h-30V15ZM285,37.5V30H262.5v7.5Zm7.5,15v-15H285v15Z"/><path class="cls-1" d="M367.5,75H345V67.5h-7.5V75H315V67.5h-7.5V7.5H315V0h15V7.5h15V0h15V7.5h7.5Zm-15-15V7.5H345V30H322.5V7.5H315V60h7.5V37.5H345V60Z"/></g></g></svg>