<svg xmlns="http://www.w3.org/2000/svg" viewBox="0 0 569.66 129.07"><defs><style>.cls-1{fill:#fff;}</style></defs><title>Asset 1</title><g id="Layer_2" data-name="Layer 2"><g id="Layer_1-2" data-name="Layer 1"><path d="M597.85,215.73h-7.52v3.77H594v3.81h-7.48v3.81h-3.86l0,0V223.4h-7.56v11.29h3.68v3.79h-7.48v-3.76h-3.86l0,0,0-7.62h3.75v-3.72H567.5v3.75l-3.82,0,0,0v-3.74h-3.83v3.74l0,0-7.62,0V219.5h3.76v-3.69h-7.59v7.57h-3.69v3.75h7.55v7.59h-7.63l0,0V231h-3.78v-7.57h-7.6V219.6H522v3.7h-3.84v11.45l0,0h-3.78V231h-7.57v3.7h3.73v3.85l0,0h-3.78v3.76H503v-7.47h-3.79v3.71h-3.85l0,0V231h-3.83v7.54l0,0h-3.79v-3.73H484v3.73h-3.86l0,0v-7.64h7.56v-3.78h7.6v-3.8h3.75v-3.77h-3.74c0-1.25,0-2.5,0-3.75h-3.71v3.72h3.74v3.83h-7.6v3.8H483.9v-3.77h-3.78v3.74h-3.79l0,0V223.4H464.91l0-3.86h7.54v-11.3H457.41V212l-3.87,0v-3.8H446v-7.53H434.62v7.46h3.79V204.4h3.78v3.74H446v3.79h7.6v3.76h3.81V212H468.7v3.8H465v3.79h-7.55v3.81h7.51v7.51h-3.74v-3.67h-3.8V231h-7.64V227.2H446v3.73h3.75v3.78H446v3.75h-7.56v-3.71h3.68V231h-3.77v-7.65h11.34V215.8h-3.75v3.67h-3.81v-3.66h-3.75v7.55l-3.82,0,0,0v-3.8h-3.82v-3.75H427v3.72h3.75l0,3.83,0,0H427v3.82l0,0h-3.82l0,0V215.71h-3.83V212h-3.81v3.79h-3.71v3.77h3.73v3.79l0,0H404.17v3.82l0,0h-3.74V231h3.74l0,0v7.61l0,0h-3.79v-3.73h-7.58v3.68H389v-3.7h-3.76V231h7.47v-3.81h-3.68v-7.65h-3.86l0,0v-3.75h-3.82v3.75l0,0h-3.83v3.83l0,0H366.25v3.8h-3.81v3.76H351.06v11.43h-3.85l0,0v-3.82h-3.83l0,0v-3.86h3.82v-7.57h11.28v-3.73H343.4v7.53h-3.79l0,0v-3.84h-3.86v-3.78h-7.56l0,0V219.5H332v-3.69h-7.56v7.55l0,0h-3.78v11.35h-7.58V231h3.69v-3.81h-3.69v-3.84h-3.86l0,0,0-3.82h11.34V212h-3.74v3.78h-7.57v3.79h-7.59v15.12H297.9v-7.52H294v-3.75h-3.71v3.72h3.74v3.77h-3.83v3.85l0,0h-3.82l0,0v-7.54h-3.82v7.54l0,0h-3.82l0,0V231h-3.83v3.75l0,0h-7.63v7.62l0,0h-3.77v-7.6h-3.85l0,0v-7.6h-3.83l0-3.79h7.55v7.49h7.66v-3.74h3.74v-3.79h3.75V212h-3.75v-7.55h-3.72v7.52h3.75v11.42h-3.85v-3.74h-3.79v3.78h-3.81l0-7.65h3.75v-7.52h-3.73v7.54H252.35v3.84h3.78v3.79h-3.84v3.76h-3.85v-3.82H237.07l0,0V219.5h-3.84v-3.77h-3.7V208.1h3.68v-3.79h7.66v3.77h7.53v-3.74h-3.76v-3.79h3.75v-3.72H244.7v3.74H233.27v3.76h-7.61V212h-3.78v11.39l0,0h-7.54v-7.57h3.68V212h-3.74V208.2h-3.77v11.36h-3.85v-3.81h-7.58V200.56l3.81,0v7.55h3.72v-7.52h-3.75v-3.81h-3.78V136H768.77v83.54H765v3.8h3.73v3.8h-7.56V223.4h-3.85V231l0,0H746v-3.75h-3.78v-3.84H730.78l0,0v-3.75H727v3.75l0,0h-3.82v3.82l0,0-3.82,0v-3.75h-3.72v3.72h3.75v11.38l0,0-3.86,0,0,0V231H708v3.71h-3.77v7.6H700.4l0,0v-3.78h-3.76v-3.78h3.73v-3.85h3.74V223.4H692.77c0-1.27,0-2.54,0-3.83H689V215.7h3.76V212H681.49v11.32h3.75v3.74H689v-3.74l3.79,0v3.82h7.63V231H677.62V227.2H673.9v3.73h3.74v7.53h-3.78v-3.74H670l0,0V223.41h-3.86v3.75H654.83v-7.6H651v-3.75h-3.77v3.75h-3.75v7.62h3.72V231l0,0h-7.59v7.56H635.9V231h-3.81v-3.77h-3.85v-7.66h3.86v-3.81h3.69V212h-7.52v7.54h-3.75v11.35h3.66v11.4h-7.53l0,0v-3.77h3.72v-3.85h-7.55l0,0V230.9H613v-7.54h-7.56v-3.75h-3.72v3.72h3.75l0,3.82,0,0h-7.62l0,0c0-3.47,0-6.94,0-10.41,0-.35,0-.69,0-1h3.87v-3.78h3.73V208.2h-7.59l0-3.86h3.75v-3.71h-3.72v3.74h-3.75v3.81h3.72Q597.85,211.95,597.85,215.73ZM461.17,196.78h-3.75v3.71h3.72v-3.74h3.75V193h-3.72Zm38,0H495.4v3.71h3.72v-3.74h3.75V193h-3.73Zm250.63,0V193h-3.71v3.73h3.74v3.74h3.71v-3.72Zm-451.91,7.6H294v3.76h-3.72V212H294v7.53h3.82v-3.78h3.77v-3.78h3.75v-3.72h-3.72V212L294,212c0-1.3,0-2.6,0-3.89h3.84v-3.77h3.75v-3.71h-3.73Zm288.63,3.8h-3.74v3.71h3.72v-3.74h3.75v-3.72h-3.73Zm57,0h-3.75v3.71h3.72v-3.74h3.75v-3.72h-3.72Zm15.19,0h-3.82v-3.75h-3.72v3.72h3.75v3.8h3.79v11.33h3.81V215.8h3.81v3.67h3.8v-3.75h7.54v-7.58h3.75v-3.72h-3.72v3.75h-3.86v3.73H670v-3.73h-7.59v-3.75h-3.77ZM351,212v-3.77h-3.75V212h-3.74v7.5h3.72v-7.53l3.79,0v3.7h3.77V212Zm-34.13-11.46v3.75h3.72v-3.72h-3.74V193h-3.72v7.52Zm72.16,3.8v3.75h3.72v-3.72H389v-7.55h-3.71v7.52Zm193.68-3.77h-7.54v3.72h7.52v-3.74h3.75v-3.72h-3.73Zm-49.37,7.57v3.75H537v-3.73H533.3v-3.74h-7.51v3.72ZM711.82,212H708v3.81h-3.7v3.7h7.52v-7.54l3.8,0v7.53h3.83v-3.79h3.73V212h-7.59v-3.77h-3.74Zm-315.21,3.79h-3.74v7.51h7.47v-3.75h-3.76v-3.78h11.34V212H396.61Zm182.29,0v3.75h7.51v-3.72h-7.54v-7.53h-3.81V212h-3.7v7.52h3.75v-3.76ZM343.44,200.54v3.75H351v-3.72h-7.54v-3.74H332.08v3.75h3.79v3.72h3.78v-3.76ZM749.8,223.33v3.75h3.71v-3.73h-3.74v-3.84h3.8v-3.78h3.85v3.77h3.77v-3.79h3.74v-3.77h-7.57v-3.77h-3.79v-3.75h-7.51v3.72h7.54v7.62H746V212h-3.72v7.53H746v3.78ZM620.67,208.17H609.33V212h3.75v3.78h-3.75v3.72h3.72v-3.75h7.6v-7.59h3.75v-3.72h-3.73Zm-129.09,3.71h11.31v-7.47H495.3v3.76h-3.72Zm19,3.87v3.74h7.51V215.7h-3.77v-7.49h-3.81V212h-3.69v3.77Zm49.39,3.72h7.5v-7.54h-3.79V208.2h-3.71ZM419.33,204.42H404.26v3.69h15.07ZM730.87,212v3.78h3.74v3.7h3.73V212ZM484,208.19v11.28h3.68V208.19Zm243-.1h3.83v-3.78h3.68v-3.68H727Zm-91.1,11.5v7.47h3.68v-7.47Zm-15.33,7.51v-7.48h-3.68v7.48Zm-113.81-3.71v3.69h7.47v-3.69Zm193.59-19h-3.7v7.48h3.7Zm-151.91,3.82H541v3.68h7.48ZM689,208.11v-7.48h-3.68v7.48Zm68.48-11.31v7.49h3.68V196.8Zm-535.58,0h-3.69v7.47h3.69ZM522,200.51h3.7V193H522Zm-22.79,30.36h3.71V227.2h-3.71Zm208.88-3.79h3.68v-3.69h-3.68ZM370,215.8h-3.7v3.68H370Zm-79.76,0h-3.69v3.67h3.69Zm231.73-.11h3.71V212h-3.71Zm30.4-3.81h3.71v-3.67h-3.71Zm-76,0h3.68V208.2h-3.68Zm-106.34,0h3.7v-3.68h-3.7Zm-37.95-3.71v3.71h3.67v-3.71Zm-19.1,0h-3.69v3.67H313Zm41.87-.11h3.68v-3.67h-3.68Zm-75.93-3.71v3.71h3.66v-3.71Zm463.19,0v-3.72h-3.66v3.72Zm-22.71,0h3.71v-3.67h-3.71Zm-151.95-3.66h-3.71v3.64h3.71Zm-11.35,3.65h3.71v-3.66h-3.71Zm-3.9,0v-3.71h-3.66v3.71Zm-37.85,0h3.68V200.6h-3.68Zm-30.48-3.67h-3.68v3.69h3.68Zm-18.88,0v3.69h3.67V200.6Zm-34.27,0H427v3.66h3.71Zm-53.08,0v3.69h3.68V200.6Zm322.81-3.8v3.69h3.67V196.8Zm-19.12,3.72v-3.71h-3.67v3.71Zm-75.86,0h3.71v-3.67h-3.71Zm-75.9-3.7v3.71h3.67V196.8Zm-22.82,3.69h3.71v-3.68h-3.71Zm-53.25-3.68h-3.7v3.68h3.7Zm-45.5,3.7h3.71v-3.69H408Zm-15.18,0h3.69v-3.67h-3.69Zm-38-3.7v3.7h3.68v-3.7ZM715.56,193h-3.68v3.68h3.68Zm-167,3.68h3.71V193h-3.71ZM404.14,193h-3.68v3.67h3.68ZM278.88,196.7h3.71V193h-3.71Z" transform="translate(-199.11 -136)"/><path class="cls-1" d="M199.11,215.75h7.58v3.81l0,0H202.9v3.83l0,0h-3.81Z" transform="translate(-199.11 -136)"/><path d="M199.11,223.34h3.81v7.61h-3.81Z" transform="translate(-199.11 -136)"/><path d="M199.11,238.53h3.73v3.8h-3.73Z" transform="translate(-199.11 -136)"/><path class="cls-1" d="M768.77,223.34H765v-3.8h3.73Z" transform="translate(-199.11 -136)"/><path d="M199.11,246.13h3.73v3.8h-3.73Z" transform="translate(-199.11 -136)"/><path class="cls-1" d="M202.92,200.54l-3.81,0v-3.8h3.78v3.81Z" transform="translate(-199.11 -136)"/><path d="M347.21,242.32v3.78H332v3.78h-3.77V238.55h-3.78V231h3.76v-3.85l0,0h3.86v7.53h3.77V231h3.79l0,0,0,7.62H332.1v3.72h7.52v-3.74l3.82,0,0,0v3.82h3.83Z" transform="translate(-199.11 -136)"/><path d="M225.75,231v-3.79h-3.84v-3.86l0,0h7.66v3.73h3.77v-3.73h3.79l0,0v3.85h3.84v3.76h7.51v3.83h-3.75v7.57l0,0h-3.79v3.76h-3.75v-7.52h3.67v-3.78h-3.72V231h-3.77v3.68h-3.81V231h-3.81Z" transform="translate(-199.11 -136)"/><path d="M609.28,238.52h-7.54v3.79h3.68v3.76h-3.71v3.84h-3.85l0,0V234.72l0,0h7.62v-7.62l0,0h3.79v11.4Z" transform="translate(-199.11 -136)"/><path d="M259.86,234.72v11.42l0,0H248.53v3.75H244.7v-7.54l0,0h3.85v-3.76h3.77v3.68h3.77v-7.54l3.83,0Z" transform="translate(-199.11 -136)"/><path d="M730.78,223.33v3.78h7.59V231l0,0h-3.78v3.76h-3.77V231h-7.64v-3.84l0,0H727v-3.82l0,0h3.82Z" transform="translate(-199.11 -136)"/><path d="M377.55,227.1v3.79h3.79v3.81h-3.69v3.82H373.8l0,0v-3.78h-3.76v-7.64h7.52Z" transform="translate(-199.11 -136)"/><path d="M556.11,257.51h-3.79V250h-3.74V242.4h3.68v3.71h3.82l0,0,0,11.45Z" transform="translate(-199.11 -136)"/><path d="M761.13,234.79h3.77v15.07h-3.68v-7.48h-3.77v-3.81h3.71v-3.81Z" transform="translate(-199.11 -136)"/><path d="M430.72,234.69v3.79h3.78v3.84h-3.7v3.74H427v-3.7h-3.74v-3.8h3.69v-3.84h3.81Z" transform="translate(-199.11 -136)"/><path d="M597.89,234.72H586.55V231h3.68v-3.82h7.66l0,0v7.62Z" transform="translate(-199.11 -136)"/><path d="M290.24,234.75H294v3.77h3.78v7.63h-7.53l0,0c0-3.81,0-7.63,0-11.45Z" transform="translate(-199.11 -136)"/><path d="M434.56,223.33v11.36h-3.84l0,0V231H427v-3.83l0,0h3.83v-3.82l0,0h3.82Z" transform="translate(-199.11 -136)"/><path d="M567.48,234.72v3.77h-3.76v3.82h-3.83l0,0v-3.78h-3.75v-3.81h11.35Z" transform="translate(-199.11 -136)"/><path d="M476.36,238.52h-3.79V231h-3.75v-3.82h7.54l0,0v11.42Z" transform="translate(-199.11 -136)"/><path d="M666.22,238.52v3.79h7.56v3.74H662.51v-7.5h3.74Z" transform="translate(-199.11 -136)"/><path d="M476.33,242.32v7.54h-3.77v-3.71h-3.74v-3.8h7.54Z" transform="translate(-199.11 -136)"/><path d="M210.53,242.27v-3.7h-3.77v-3.79h7.47v7.49Z" transform="translate(-199.11 -136)"/><path d="M229.5,246.11h-3.82l0,0V238.6h7.53v3.68h-3.76v3.86Z" transform="translate(-199.11 -136)"/><path d="M225.68,246.11v3.75h-7.52v-7.48h3.7v3.76h3.85Z" transform="translate(-199.11 -136)"/><path d="M666.25,234.72H654.83l0,0c0-1.28,0-2.55,0-3.83h11.39v3.83Z" transform="translate(-199.11 -136)"/><path d="M749.8,246.14V234.81h3.72v11.3h-3.75Z" transform="translate(-199.11 -136)"/><path d="M632,246.12v11.33h-3.72v-11.3h3.75Z" transform="translate(-199.11 -136)"/><path d="M525.77,238.58v-3.77H537v3.74H525.74Z" transform="translate(-199.11 -136)"/><path d="M347.21,253.71v3.75H335.89v-3.72h11.34Z" transform="translate(-199.11 -136)"/><path d="M218.09,231l7.66,0,0,0v3.74H222v3.77h-3.83v-7.54Z" transform="translate(-199.11 -136)"/><path d="M404.17,238.54h7.55v7.53H408v-3.7H404.2v-3.85Z" transform="translate(-199.11 -136)"/><path d="M423.17,227.13v3.74H415.6v-7.54l0,0h3.84v3.79h3.78Z" transform="translate(-199.11 -136)"/><path d="M719.39,253.71v3.75H708.07v-3.72h11.34Z" transform="translate(-199.11 -136)"/><path d="M738.38,246.12v3.74h-7.53v-7.48h3.7v3.77h3.85Z" transform="translate(-199.11 -136)"/><path d="M522,227.15h3.73v-3.76h3.74v7.49H522Z" transform="translate(-199.11 -136)"/><path d="M206.66,223.4h3.8v7.46h-3.77v-7.5Z" transform="translate(-199.11 -136)"/><path d="M495.32,242.35h3.75v7.56h-3.75l0,0v-7.62Z" transform="translate(-199.11 -136)"/><path d="M358.68,234.78h3.68v7.47h-3.68Z" transform="translate(-199.11 -136)"/><path d="M442.12,242.38v7.48h-3.69v-7.48Z" transform="translate(-199.11 -136)"/><path d="M373.8,238.52v3.74h-7.52v-3.72h7.54Z" transform="translate(-199.11 -136)"/><path d="M419.31,242.29h-3.68v-7.48h3.68Z" transform="translate(-199.11 -136)"/><path d="M575.15,242.38h3.69v7.47h-3.69Z" transform="translate(-199.11 -136)"/><path d="M647.29,265.07v-7.48H651v7.48Z" transform="translate(-199.11 -136)"/><path d="M305.38,249.88H301.7v-7.47h3.68Z" transform="translate(-199.11 -136)"/><path d="M267.45,242.34h3.8v7.6l0,0h-3.8v-7.59Z" transform="translate(-199.11 -136)"/><path d="M480.1,242.38h7.59v3.67h-7.56v-3.7Z" transform="translate(-199.11 -136)"/><path d="M457.31,238.59l3.86,0,0,0v7.54h-3.8v-7.5Z" transform="translate(-199.11 -136)"/><path d="M423.13,246.18v3.68h-7.49v-3.68Z" transform="translate(-199.11 -136)"/><path d="M715.57,246.18v3.68h-7.5v-3.68Z" transform="translate(-199.11 -136)"/><path d="M719.41,253.74V246.2h3.73v7.51h-3.75Z" transform="translate(-199.11 -136)"/><path d="M229.48,246.14h3.74v7.52H229.5v-7.55Z" transform="translate(-199.11 -136)"/><path d="M685.17,253.68H677.7V250h7.47Z" transform="translate(-199.11 -136)"/><path d="M316.83,246.12v7.53h-3.72v-7.5h3.74Z" transform="translate(-199.11 -136)"/><path d="M461.17,238.55V234.8h7.52v3.72h-7.55Z" transform="translate(-199.11 -136)"/><path d="M742.24,242.38c0-2.54,0-5.08-.07-7.62l0,0h3.77v7.56h-3.7Z" transform="translate(-199.11 -136)"/><path d="M654.83,234.72q0,3.81,0,7.62l0,0h-3.79v-7.6l0,0h3.82Z" transform="translate(-199.11 -136)"/><path d="M529.57,250H537v3.69h-7.47Z" transform="translate(-199.11 -136)"/><path d="M689,238.52v3.75h-7.51v-3.72H689Z" transform="translate(-199.11 -136)"/><path d="M278.85,234.72v7.54h-3.77v-7.54l0,0h3.83Z" transform="translate(-199.11 -136)"/><path d="M715.59,238.52v3.74h-7.52v-3.72h7.55Z" transform="translate(-199.11 -136)"/><path d="M514.37,253.67V250h7.49v3.68Z" transform="translate(-199.11 -136)"/><path d="M316.85,246.15V242.4h3.73v3.72h-3.75Z" transform="translate(-199.11 -136)"/><path d="M286.47,246.11h-3.74v-3.72h3.71v3.75Z" transform="translate(-199.11 -136)"/><path d="M723.18,238.52v3.75h-3.73v-3.79l0,0,3.79,0Z" transform="translate(-199.11 -136)"/><path d="M613.05,238.52v3.75h-3.77v-3.75l0,0h3.83Z" transform="translate(-199.11 -136)"/><path d="M582.7,242.25v-3.64h3.72v3.64Z" transform="translate(-199.11 -136)"/><path d="M521.88,238.59h3.89l0,0v3.73H521.9v-3.72Z" transform="translate(-199.11 -136)"/><path d="M510.51,238.54h3.75v3.73h-3.72v-3.75Z" transform="translate(-199.11 -136)"/><path d="M495.35,242.32h-3.8v-3.8l0,0h3.83l0,0v3.83Z" transform="translate(-199.11 -136)"/><path d="M476.36,242.35v-3.83l0,0h3.83l0,0,0,3.86,0,0-3.8,0Z" transform="translate(-199.11 -136)"/><path d="M449.78,242.34v-3.79h3.79l0,0v3.79h-3.79Z" transform="translate(-199.11 -136)"/><path d="M723.21,238.55v-3.74h3.72v3.71h-3.75Z" transform="translate(-199.11 -136)"/><path d="M689,238.55v-3.74h3.73v3.71H689Z" transform="translate(-199.11 -136)"/><path d="M666.25,238.55v-3.83l0,0h3.83l0,0v3.8h-3.8Z" transform="translate(-199.11 -136)"/><path d="M647.19,234.69v3.8h-3.67v-3.77h3.7Z" transform="translate(-199.11 -136)"/><path d="M616.85,234.72v3.8h-3.8l0,0v-3.8h3.8Z" transform="translate(-199.11 -136)"/><path d="M544.69,234.72v3.74H541v-3.71h3.75Z" transform="translate(-199.11 -136)"/><path d="M518.11,234.75h3.77v3.84l0,0h-3.77v-3.84Z" transform="translate(-199.11 -136)"/><path d="M453.57,238.55v-3.74h3.75c0,1.23,0,2.5,0,3.78l0,0-3.8,0Z" transform="translate(-199.11 -136)"/><path d="M286.45,234.72v3.75h-3.78v-3.75l0,0h3.82Z" transform="translate(-199.11 -136)"/><path d="M757.36,231h3.78c0,1.29,0,2.57,0,3.84l0,0h-3.77v-3.84Z" transform="translate(-199.11 -136)"/><path d="M738.37,231h3.78v3.84l0,0H738.4v-3.84Z" transform="translate(-199.11 -136)"/><path d="M651.06,234.72l-3.87,0,0,0c0-1.27,0-2.53,0-3.8l0,0,3.83,0,0,3.83Z" transform="translate(-199.11 -136)"/><path d="M582.67,227.12v3.75H579v-3.72h3.75Z" transform="translate(-199.11 -136)"/><path d="M563.68,227.13v3.74h-3.77v-3.74l0,0h3.83Z" transform="translate(-199.11 -136)"/><path d="M533.37,227.19H537v3.69h-3.67Z" transform="translate(-199.11 -136)"/><path d="M427,265.05v-3.68h3.68v3.68Z" transform="translate(-199.11 -136)"/><path d="M294.1,265.05v-3.68h3.68v3.68Z" transform="translate(-199.11 -136)"/><path d="M404.17,227.15h3.75v3.78h-3.75l0,0v-3.82Z" transform="translate(-199.11 -136)"/><path d="M282.71,261.36h3.68v3.7h-3.68Z" transform="translate(-199.11 -136)"/><path d="M218.12,230.93h-3.75V227.2h3.72V231Z" transform="translate(-199.11 -136)"/><path d="M202.93,265.06V261.4h3.71v3.66Z" transform="translate(-199.11 -136)"/><path d="M764.91,261.28h-3.68V257.6h3.68Z" transform="translate(-199.11 -136)"/><path d="M749.8,261.26V257.6h3.71v3.66Z" transform="translate(-199.11 -136)"/><path d="M727,257.51v3.74h-3.72v-3.71H727Z" transform="translate(-199.11 -136)"/><path d="M613.1,261.27v-3.69h3.71v3.69Z" transform="translate(-199.11 -136)"/><path d="M578.82,261.28h-3.68V257.6h3.68Z" transform="translate(-199.11 -136)"/><path d="M556.08,257.53h3.75v3.73h-3.72v-3.75Z" transform="translate(-199.11 -136)"/><path d="M468.71,257.57v3.69H465v-3.69Z" transform="translate(-199.11 -136)"/><path d="M381.39,223.33v3.77h-3.84l0,0c0-1.26,0-2.53,0-3.79l0,0h3.83Z" transform="translate(-199.11 -136)"/><path d="M328.25,227.13h-3.8v-3.8l0,0h3.83l0,0v3.82Z" transform="translate(-199.11 -136)"/><path d="M309.23,223.33v3.74h-3.72v-3.72h3.75Z" transform="translate(-199.11 -136)"/><path d="M313,257.58v3.67h-3.69v-3.67Z" transform="translate(-199.11 -136)"/><path d="M248.52,261.27v-3.68h3.7v3.68Z" transform="translate(-199.11 -136)"/><path d="M727,257.54v-3.75h3.72v3.72H727Z" transform="translate(-199.11 -136)"/><path d="M624.41,253.79v3.69h-3.68v-3.69Z" transform="translate(-199.11 -136)"/><path d="M609.21,257.48h-3.67v-3.69h3.67Z" transform="translate(-199.11 -136)"/><path d="M544.7,253.74h3.74v3.72h-3.72v-3.75Z" transform="translate(-199.11 -136)"/><path d="M423.21,257.45v-3.67h3.72v3.67Z" transform="translate(-199.11 -136)"/><path d="M385.19,219.53v3.8h-3.8l0,0v-3.83l0,0h3.82Z" transform="translate(-199.11 -136)"/><path d="M381.48,253.76h3.66v3.71h-3.66Z" transform="translate(-199.11 -136)"/><path d="M373.86,253.77h3.68v3.69h-3.68Z" transform="translate(-199.11 -136)"/><path d="M366.27,253.74h3.66v3.71h-3.66Z" transform="translate(-199.11 -136)"/><path d="M202.9,223.36v-3.83h3.82l-.06,3.86,0,0Z" transform="translate(-199.11 -136)"/><path d="M320.7,253.74h3.66v3.72H320.7Z" transform="translate(-199.11 -136)"/><path d="M297.84,253.74h3.74v3.72h-3.71v-3.75Z" transform="translate(-199.11 -136)"/><path d="M275,253.78h3.8v3.67h-3.77v-3.7Z" transform="translate(-199.11 -136)"/><path d="M259.92,253.77h3.69v3.69h-3.69Z" transform="translate(-199.11 -136)"/><path d="M700.37,250v3.67h-3.68V250Z" transform="translate(-199.11 -136)"/><path d="M673.78,253.68H670.1V250h3.68Z" transform="translate(-199.11 -136)"/><path d="M658.6,250v3.69h-3.68V250Z" transform="translate(-199.11 -136)"/><path d="M597.86,249.91v3.75h-3.72v-3.72h3.75Z" transform="translate(-199.11 -136)"/><path d="M567.48,249.94h3.74v3.72h-3.71v-3.74Z" transform="translate(-199.11 -136)"/><path d="M544.72,253.71H541V250h3.72v3.75Z" transform="translate(-199.11 -136)"/><path d="M495.32,249.91v3.75H491.6v-3.72h3.75Z" transform="translate(-199.11 -136)"/><path d="M430.84,250h3.68v3.68h-3.68Z" transform="translate(-199.11 -136)"/><path d="M411.73,253.68h-3.67V250h3.67Z" transform="translate(-199.11 -136)"/><path d="M400.41,253.66V250h3.71v3.66Z" transform="translate(-199.11 -136)"/><path d="M347.23,253.74V250H351v3.71h-3.75Z" transform="translate(-199.11 -136)"/><path d="M297.87,253.71h-3.75V250h3.72v3.75Z" transform="translate(-199.11 -136)"/><path d="M286.41,249.88v3.8h-3.67v-3.77h3.7Z" transform="translate(-199.11 -136)"/><path d="M271.25,249.94H275v3.84l0,0h-3.77v-3.84Z" transform="translate(-199.11 -136)"/><path d="M206.76,250h3.67v3.69h-3.67Z" transform="translate(-199.11 -136)"/><path d="M749.77,246.11v3.75h-3.72v-3.72h3.75Z" transform="translate(-199.11 -136)"/><path d="M647.24,246.14H651v3.72h-3.72v-3.74Z" transform="translate(-199.11 -136)"/><path d="M635.81,246.18h3.79v3.67h-3.77v-3.7Z" transform="translate(-199.11 -136)"/><path d="M616.81,246.08v3.8h-3.67v-3.77h3.7Z" transform="translate(-199.11 -136)"/><path d="M586.56,246.16h3.66v3.72h-3.66Z" transform="translate(-199.11 -136)"/><path d="M567.51,249.92h-3.75v-3.73h3.72v3.75Z" transform="translate(-199.11 -136)"/><path d="M392.76,246.2v3.67h-3.71V246.2Z" transform="translate(-199.11 -136)"/><path d="M377.66,246.17h3.68v3.7h-3.68Z" transform="translate(-199.11 -136)"/><path d="M366.27,246.18h3.67v3.68h-3.67Z" transform="translate(-199.11 -136)"/><path d="M286.44,246.14l3.87,0,0,0v3.73h-3.87l0,0,0-3.8Z" transform="translate(-199.11 -136)"/><path d="M259.86,246.14h3.74v3.72h-3.71v-3.75Z" transform="translate(-199.11 -136)"/><path d="M738.4,246.15v-3.78h3.84l0,0v3.77h-3.83Z" transform="translate(-199.11 -136)"/><path d="M700.4,242.31v3.75h-3.72v-3.72h3.75Z" transform="translate(-199.11 -136)"/><path d="M654.82,242.34h3.75v3.73h-3.72v-3.75Z" transform="translate(-199.11 -136)"/><path d="M647.26,246.12h-3.74v-3.73h3.72v3.75Z" transform="translate(-199.11 -136)"/><path d="M632.07,246.15v-3.74h3.74v3.77l0,0-3.79,0Z" transform="translate(-199.11 -136)"/><path d="M620.65,242.31v3.78h-3.84l0,0v-3.77h3.84Z" transform="translate(-199.11 -136)"/><path d="M559.89,242.31v3.78h-3.84l0,0v-3.77h3.83Z" transform="translate(-199.11 -136)"/><path d="M540.86,246.09h-3.69v-3.7h3.69Z" transform="translate(-199.11 -136)"/><path d="M533.27,242.39v3.67h-3.69v-3.67Z" transform="translate(-199.11 -136)"/><path d="M449.75,242.31v3.75H446v-3.72h3.75Z" transform="translate(-199.11 -136)"/><path class="cls-1" d="M237.1,223.36h-3.79v3.73h-3.77v-3.73h-7.66V212h3.78v-7.64h7.61l0,0v3.79h-3.68v7.63h3.7v3.77h3.84Z" transform="translate(-199.11 -136)"/><path class="cls-1" d="M256.06,234.72v7.54h-3.77v-3.68h-3.77v3.76h-3.85v-7.57h3.75v-3.83h-7.51v-3.76h-3.84v-3.85h11.37v3.82h3.85l0,0v7.62h3.82Z" transform="translate(-199.11 -136)"/><path class="cls-1" d="M677.61,208.14v7.58h-7.54v3.75h-3.8V215.8h-3.81v7.47h-3.81V211.94l0,0h3.82v-3.82l0,0H670v3.73h3.77v-3.73h3.86Z" transform="translate(-199.11 -136)"/><path class="cls-1" d="M343.44,238.55l-3.82,0,0,0,0-7.62h3.79v-7.53h15.14v3.73H347.26v7.57h-3.82Z" transform="translate(-199.11 -136)"/><path class="cls-1" d="M423.19,227.15h-3.78v-3.79h-3.84v-3.79h-3.73V215.8h3.71V212h3.81v3.7h3.83Z" transform="translate(-199.11 -136)"/><path class="cls-1" d="M457.41,212v-3.76h15.07v11.3h-7.54l0,0v-3.78h3.73V212H457.38Z" transform="translate(-199.11 -136)"/><path class="cls-1" d="M670.05,234.75h-3.83v-3.83H654.83l0,0v-3.82l0,0h11.36v-3.75h3.86Z" transform="translate(-199.11 -136)"/><path class="cls-1" d="M651.06,230.92l-3.83,0v-3.77h-3.72v-7.62h3.75l0,0v3.75h3.83v-3.75l0,0h3.8v7.6l0,0H651V231Z" transform="translate(-199.11 -136)"/><path class="cls-1" d="M480.16,238.55h-3.83V227.13h3.79v-3.74h3.78v3.77h3.85l0,0v3.78h-7.56Z" transform="translate(-199.11 -136)"/><path class="cls-1" d="M685.24,223.33h-3.75V212h11.28v3.69H689v3.86l0,0h-3.82v3.83Z" transform="translate(-199.11 -136)"/><path class="cls-1" d="M275.05,223.33v3.79h-3.74v3.74h-7.66v-7.5l0,0h3.81v-3.78h3.79v3.74h3.85Z" transform="translate(-199.11 -136)"/><path class="cls-1" d="M616.88,234.75h-3.8v3.8h-3.83v-11.4h-3.79l0-3.82,0,0H613v7.54h3.86Z" transform="translate(-199.11 -136)"/><path class="cls-1" d="M552.32,227.13h-7.55v-3.75h3.69v-7.57h7.59v3.69h-3.76v7.66Z" transform="translate(-199.11 -136)"/><path class="cls-1" d="M244.67,200.55v3.79h3.76v3.74H240.9v-3.77h-7.66l0,0v-3.77H244.7Z" transform="translate(-199.11 -136)"/><path class="cls-1" d="M446,208.14h-3.78V204.4h-3.78v3.69h-3.79v-7.46H446v7.53Z" transform="translate(-199.11 -136)"/><path class="cls-1" d="M491.58,211.88v-3.71h3.72v-3.76h7.59v7.47Z" transform="translate(-199.11 -136)"/><path class="cls-1" d="M613.08,215.76V212h-3.75v-3.81h11.34l0,0v7.59h-7.6Z" transform="translate(-199.11 -136)"/><path class="cls-1" d="M328.22,227.15v-3.82h7.56v3.78h3.86V231h-3.79v3.73h-3.77v-7.53Z" transform="translate(-199.11 -136)"/><path class="cls-1" d="M510.55,215.75h-3.76V212h3.69v-3.77h3.81v7.49h3.77v3.79h-7.51Z" transform="translate(-199.11 -136)"/><path class="cls-1" d="M559.94,219.47V208.2h3.71v3.73h3.79v7.54Z" transform="translate(-199.11 -136)"/><path class="cls-1" d="M753.57,208.17h3.79v3.77h7.57v3.77h-3.74v3.79h-3.77v-3.77h-3.85l0,0v-7.62Z" transform="translate(-199.11 -136)"/><path class="cls-1" d="M256.13,223.39V219.6h-3.78v-3.84h11.33l0,0,0,7.65,0,0H256.1Z" transform="translate(-199.11 -136)"/><path class="cls-1" d="M438.38,223.36v-7.55h3.75v3.66h3.81V215.8h3.75v7.53H438.35Z" transform="translate(-199.11 -136)"/><path class="cls-1" d="M753.57,215.73v3.78h-3.8v3.84l0,0H746v-3.78h-3.77V212H746v3.74h7.64Z" transform="translate(-199.11 -136)"/><path class="cls-1" d="M309.26,219.56v-3.79h7.57V212h3.74v7.54H309.23Z" transform="translate(-199.11 -136)"/><path class="cls-1" d="M419.33,204.42v3.69H404.26v-3.69Z" transform="translate(-199.11 -136)"/><path class="cls-1" d="M343.44,200.54h-3.79v3.76h-3.78v-3.72h-3.79v-3.75h11.33v3.74Z" transform="translate(-199.11 -136)"/><path class="cls-1" d="M578.9,215.73h-3.79v3.76h-3.75V212h3.7v-3.74h3.81v7.53Z" transform="translate(-199.11 -136)"/><path class="cls-1" d="M700.43,231v-3.76H692.8v-3.82l0,0h11.37v7.53H700.4Z" transform="translate(-199.11 -136)"/><path class="cls-1" d="M597.86,234.75v-7.62h7.62v7.62Z" transform="translate(-199.11 -136)"/><path class="cls-1" d="M396.58,215.74v3.78h3.76v3.75h-7.47v-7.51h3.74Z" transform="translate(-199.11 -136)"/><path class="cls-1" d="M328.25,223.36h-3.83v-7.55H332v3.69h-3.73Z" transform="translate(-199.11 -136)"/><path class="cls-1" d="M275.08,223.36V211.94l0,0h3.75v11.36h-3.75Z" transform="translate(-199.11 -136)"/><path class="cls-1" d="M730.87,212h7.47v7.48h-3.73v-3.7h-3.74Z" transform="translate(-199.11 -136)"/><path class="cls-1" d="M715.56,212h7.59v3.71h-3.73v3.79h-3.83V212Z" transform="translate(-199.11 -136)"/><path class="cls-1" d="M711.79,211.94v7.54h-7.52v-3.7H708V212h3.85Z" transform="translate(-199.11 -136)"/><path class="cls-1" d="M628.27,219.56V212h7.52v3.7H632.1v3.81h-3.86Z" transform="translate(-199.11 -136)"/><path class="cls-1" d="M484,208.19h3.68v11.28H484Z" transform="translate(-199.11 -136)"/><path class="cls-1" d="M294,212l7.65,0,0,0v3.78h-3.77v3.78H294V212Z" transform="translate(-199.11 -136)"/><path class="cls-1" d="M597.83,208.2h7.59v3.72h-3.73v3.78h-3.87l0,0q0-3.78,0-7.56Z" transform="translate(-199.11 -136)"/><path class="cls-1" d="M396.61,215.76V212h11.31v3.72H396.58Z" transform="translate(-199.11 -136)"/><path class="cls-1" d="M727,208.09v-7.46h7.51v3.68h-3.68v3.78Z" transform="translate(-199.11 -136)"/><path class="cls-1" d="M635.92,219.59h3.68v7.47h-3.68Z" transform="translate(-199.11 -136)"/><path class="cls-1" d="M620.59,227.1h-3.68v-7.48h3.68Z" transform="translate(-199.11 -136)"/><path class="cls-1" d="M506.78,223.39h7.47v3.69h-7.47Z" transform="translate(-199.11 -136)"/><path class="cls-1" d="M487.75,227.16v-3.8h7.6l0,0v3.8h-7.6Z" transform="translate(-199.11 -136)"/><path class="cls-1" d="M464.94,219.53l0,3.86,0,0h-7.52v-3.81H465Z" transform="translate(-199.11 -136)"/><path class="cls-1" d="M495.35,238.55h-3.83V231h3.83Z" transform="translate(-199.11 -136)"/><path class="cls-1" d="M578.87,215.76h7.54v3.72H578.9v-3.75Z" transform="translate(-199.11 -136)"/><path class="cls-1" d="M259.89,234.75l-3.83,0,0,0v-7.62l0,0h3.83Z" transform="translate(-199.11 -136)"/><path class="cls-1" d="M347.21,211.94v7.53h-3.72V212h3.74Z" transform="translate(-199.11 -136)"/><path class="cls-1" d="M286.47,234.75h-3.82v-7.54h3.82Z" transform="translate(-199.11 -136)"/><path class="cls-1" d="M263.68,215.76v-7.54h3.73v7.52h-3.75Z" transform="translate(-199.11 -136)"/><path class="cls-1" d="M700.37,204.4v7.48h-3.7V204.4Z" transform="translate(-199.11 -136)"/><path class="cls-1" d="M548.46,208.22v3.68H541v-3.68Z" transform="translate(-199.11 -136)"/><path class="cls-1" d="M446,208.16h7.59V212l0,0H446v-3.79Z" transform="translate(-199.11 -136)"/><path class="cls-1" d="M275.08,211.94h-3.75v-7.52h3.72V212Z" transform="translate(-199.11 -136)"/><path class="cls-1" d="M753.6,208.14h-7.54v-3.72h7.51v3.75Z" transform="translate(-199.11 -136)"/><path class="cls-1" d="M689,208.11h-3.68v-7.48H689Z" transform="translate(-199.11 -136)"/><path class="cls-1" d="M533.32,208.14h-7.53v-3.72h7.51v3.74Z" transform="translate(-199.11 -136)"/><path class="cls-1" d="M202.89,200.57h3.75v7.52h-3.72v-7.55Z" transform="translate(-199.11 -136)"/><path class="cls-1" d="M757.43,196.8h3.68v7.49h-3.68Z" transform="translate(-199.11 -136)"/><path class="cls-1" d="M582.67,200.55v3.74h-7.52v-3.72h7.54Z" transform="translate(-199.11 -136)"/><path class="cls-1" d="M389,204.34h-3.74v-7.52H389v7.55Z" transform="translate(-199.11 -136)"/><path class="cls-1" d="M343.41,200.57H351v3.72h-7.51v-3.75Z" transform="translate(-199.11 -136)"/><path class="cls-1" d="M221.85,196.81v7.47h-3.69v-7.47Z" transform="translate(-199.11 -136)"/><path class="cls-1" d="M522,200.51V193h3.7v7.49Z" transform="translate(-199.11 -136)"/><path class="cls-1" d="M316.85,200.54h-3.74V193h3.72v7.55Z" transform="translate(-199.11 -136)"/><path class="cls-1" d="M347.24,242.34h-3.83v-3.82h3.83Z" transform="translate(-199.11 -136)"/><path class="cls-1" d="M278.88,234.75h-3.83V231h3.83Z" transform="translate(-199.11 -136)"/><path class="cls-1" d="M677.64,230.93H673.9V227.2h3.72V231Z" transform="translate(-199.11 -136)"/><path class="cls-1" d="M499.17,230.87V227.2h3.71v3.67Z" transform="translate(-199.11 -136)"/><path class="cls-1" d="M449.78,230.93H446V227.2h3.72V231Z" transform="translate(-199.11 -136)"/><path class="cls-1" d="M404.2,227.13V231h-3.74v-3.82Z" transform="translate(-199.11 -136)"/><path class="cls-1" d="M749.77,223.35h3.74v3.73H749.8v-3.75Z" transform="translate(-199.11 -136)"/><path class="cls-1" d="M727,223.33v3.82h-3.82v-3.82Z" transform="translate(-199.11 -136)"/><path class="cls-1" d="M719.42,227.13h-3.75v-3.72h3.72v3.75Z" transform="translate(-199.11 -136)"/><path class="cls-1" d="M708.05,227.08v-3.69h3.68v3.69Z" transform="translate(-199.11 -136)"/><path class="cls-1" d="M689,223.33v3.74h-3.77v-3.74l0,0H689Z" transform="translate(-199.11 -136)"/><path class="cls-1" d="M567.5,227.16v-3.75h3.73v3.72h-3.75Z" transform="translate(-199.11 -136)"/><path class="cls-1" d="M563.71,227.15h-3.83v-3.74h3.83Z" transform="translate(-199.11 -136)"/><path class="cls-1" d="M430.79,223.33v3.82H427v-3.82Z" transform="translate(-199.11 -136)"/><path class="cls-1" d="M294.07,227.13h-3.74v-3.72H294v3.75Z" transform="translate(-199.11 -136)"/><path class="cls-1" d="M252.29,227.15v-3.76h3.84l0,0c0,1.27,0,2.53,0,3.79l0,0h-3.82Z" transform="translate(-199.11 -136)"/><path class="cls-1" d="M730.81,223.36H727v-3.75h3.82Z" transform="translate(-199.11 -136)"/><path class="cls-1" d="M689,219.56h3.77c0,1.29,0,2.56,0,3.83l0,0-3.79,0,0,0v-3.83Z" transform="translate(-199.11 -136)"/><path class="cls-1" d="M605.49,223.33h-3.75v-3.72h3.72v3.75Z" transform="translate(-199.11 -136)"/><path class="cls-1" d="M495.35,223.36v-3.83l0,0h3.74v3.77h-3.75Z" transform="translate(-199.11 -136)"/><path class="cls-1" d="M434.58,223.36h-3.82l0-3.83,0,0h3.82Z" transform="translate(-199.11 -136)"/><path class="cls-1" d="M381.42,219.53v3.83h-3.83v-3.83Z" transform="translate(-199.11 -136)"/><path class="cls-1" d="M647.26,219.56v-3.75H651v3.75l0,0h-3.83Z" transform="translate(-199.11 -136)"/><path class="cls-1" d="M613.05,215.73v3.75h-3.72v-3.72h3.75Z" transform="translate(-199.11 -136)"/><path class="cls-1" d="M495.35,219.53h-3.74v-3.72h3.71c0,1.25,0,2.5,0,3.75Z" transform="translate(-199.11 -136)"/><path class="cls-1" d="M430.79,219.53H427v-3.72h3.72v3.75Z" transform="translate(-199.11 -136)"/><path class="cls-1" d="M385.21,219.56h-3.82v-3.75h3.82Z" transform="translate(-199.11 -136)"/><path class="cls-1" d="M370,215.8v3.68h-3.7V215.8Z" transform="translate(-199.11 -136)"/><path class="cls-1" d="M290.21,215.8v3.67h-3.69V215.8Z" transform="translate(-199.11 -136)"/><path class="cls-1" d="M521.94,215.69V212h3.71v3.67Z" transform="translate(-199.11 -136)"/><path class="cls-1" d="M453.54,212l3.87,0,0,0v3.72h-3.81v-3.76Z" transform="translate(-199.11 -136)"/><path class="cls-1" d="M351,212h3.79v3.67H351V212Z" transform="translate(-199.11 -136)"/><path class="cls-1" d="M711.82,212v-3.74h3.74V212l0,0-3.8,0Z" transform="translate(-199.11 -136)"/><path class="cls-1" d="M654.83,208.17h3.82l0,0V212l0,0h-3.79v-3.8Z" transform="translate(-199.11 -136)"/><path class="cls-1" d="M643.43,208.14v3.74h-3.72v-3.71h3.75Z" transform="translate(-199.11 -136)"/><path class="cls-1" d="M586.47,208.14v3.74h-3.72v-3.71h3.74Z" transform="translate(-199.11 -136)"/><path class="cls-1" d="M552.34,211.88v-3.67h3.71v3.67Z" transform="translate(-199.11 -136)"/><path class="cls-1" d="M533.3,208.16H537v3.73h-3.72v-3.75Z" transform="translate(-199.11 -136)"/><path class="cls-1" d="M476.39,211.88V208.2h3.68v3.68Z" transform="translate(-199.11 -136)"/><path class="cls-1" d="M370.05,211.9v-3.68h3.7v3.68Z" transform="translate(-199.11 -136)"/><path class="cls-1" d="M347.23,212v-3.74H351V212l0,0-3.79,0Z" transform="translate(-199.11 -136)"/><path class="cls-1" d="M332.1,208.19h3.67v3.71H332.1Z" transform="translate(-199.11 -136)"/><path class="cls-1" d="M313,208.21v3.67h-3.69v-3.67Z" transform="translate(-199.11 -136)"/><path class="cls-1" d="M301.66,212v-3.75h3.72v3.72h-3.75Z" transform="translate(-199.11 -136)"/><path class="cls-1" d="M294,208.11c0,1.29,0,2.59,0,3.89l0,0h-3.73v-3.84H294Z" transform="translate(-199.11 -136)"/><path class="cls-1" d="M677.64,208.17v-3.75h3.72v3.72h-3.75Z" transform="translate(-199.11 -136)"/><path class="cls-1" d="M658.65,208.17v-3.75h3.77v3.75l0,0h-3.82Z" transform="translate(-199.11 -136)"/><path class="cls-1" d="M654.86,208.14h-3.75v-3.72h3.72v3.75Z" transform="translate(-199.11 -136)"/><path class="cls-1" d="M643.46,208.17v-3.75h3.72v3.72h-3.75Z" transform="translate(-199.11 -136)"/><path class="cls-1" d="M620.67,208.17v-3.75h3.73v3.72h-3.75Z" transform="translate(-199.11 -136)"/><path class="cls-1" d="M597.86,204.34l0,3.86,0,0h-3.72v-3.81h3.75Z" transform="translate(-199.11 -136)"/><path class="cls-1" d="M586.49,208.17v-3.75h3.73v3.72h-3.75Z" transform="translate(-199.11 -136)"/><path class="cls-1" d="M389,204.37h3.75v3.72H389v-3.75Z" transform="translate(-199.11 -136)"/><path class="cls-1" d="M354.87,208.1v-3.67h3.68v3.67Z" transform="translate(-199.11 -136)"/><path class="cls-1" d="M297.84,204.34v3.77H294l0,0v-3.76h3.83Z" transform="translate(-199.11 -136)"/><path class="cls-1" d="M278.94,204.39h3.66v3.71h-3.66Z" transform="translate(-199.11 -136)"/><path class="cls-1" d="M742.13,204.34h-3.66v-3.72h3.66Z" transform="translate(-199.11 -136)"/><path class="cls-1" d="M719.42,204.3v-3.67h3.71v3.67Z" transform="translate(-199.11 -136)"/><path class="cls-1" d="M597.89,204.37v-3.74h3.72v3.71h-3.75Z" transform="translate(-199.11 -136)"/><path class="cls-1" d="M567.47,200.64v3.64h-3.71v-3.64Z" transform="translate(-199.11 -136)"/><path class="cls-1" d="M556.12,204.29v-3.66h3.71v3.66Z" transform="translate(-199.11 -136)"/><path class="cls-1" d="M552.22,204.32h-3.66v-3.71h3.66Z" transform="translate(-199.11 -136)"/><path class="cls-1" d="M514.37,204.29V200.6h3.68v3.69Z" transform="translate(-199.11 -136)"/><path class="cls-1" d="M483.89,200.62v3.69h-3.68v-3.69Z" transform="translate(-199.11 -136)"/><path class="cls-1" d="M465,200.6h3.67v3.69H465Z" transform="translate(-199.11 -136)"/><path class="cls-1" d="M430.74,200.63v3.66H427v-3.66Z" transform="translate(-199.11 -136)"/><path class="cls-1" d="M377.66,200.6h3.68v3.69h-3.68Z" transform="translate(-199.11 -136)"/><path class="cls-1" d="M316.83,200.57h3.74v3.72h-3.72v-3.75Z" transform="translate(-199.11 -136)"/><path class="cls-1" d="M297.86,204.37v-3.74h3.73v3.71h-3.75Z" transform="translate(-199.11 -136)"/><path class="cls-1" d="M749.77,196.77h3.74v3.72H749.8v-3.74Z" transform="translate(-199.11 -136)"/><path class="cls-1" d="M700.47,196.8h3.67v3.69h-3.67Z" transform="translate(-199.11 -136)"/><path class="cls-1" d="M681.35,200.52h-3.67v-3.71h3.67Z" transform="translate(-199.11 -136)"/><path class="cls-1" d="M605.49,200.5v-3.67h3.71v3.67Z" transform="translate(-199.11 -136)"/><path class="cls-1" d="M582.69,200.57v-3.74h3.73v3.72h-3.75Z" transform="translate(-199.11 -136)"/><path class="cls-1" d="M529.59,196.8h3.67v3.71h-3.67Z" transform="translate(-199.11 -136)"/><path class="cls-1" d="M506.77,200.49v-3.68h3.71v3.68Z" transform="translate(-199.11 -136)"/><path class="cls-1" d="M499.12,196.75v3.74H495.4v-3.71h3.74Z" transform="translate(-199.11 -136)"/><path class="cls-1" d="M461.14,196.75v3.74h-3.72v-3.71h3.75Z" transform="translate(-199.11 -136)"/><path class="cls-1" d="M453.52,196.81v3.68h-3.7v-3.68Z" transform="translate(-199.11 -136)"/><path class="cls-1" d="M408,200.51v-3.69h3.71v3.69Z" transform="translate(-199.11 -136)"/><path class="cls-1" d="M392.84,200.5v-3.67h3.69v3.67Z" transform="translate(-199.11 -136)"/><path class="cls-1" d="M354.87,196.8h3.68v3.7h-3.68Z" transform="translate(-199.11 -136)"/><path class="cls-1" d="M244.7,200.57v-3.74h3.72v3.72h-3.75Z" transform="translate(-199.11 -136)"/><path class="cls-1" d="M749.8,196.75h-3.74V193h3.71v3.75Z" transform="translate(-199.11 -136)"/><path class="cls-1" d="M715.56,193v3.68h-3.68V193Z" transform="translate(-199.11 -136)"/><path class="cls-1" d="M548.54,196.71V193h3.71v3.69Z" transform="translate(-199.11 -136)"/><path class="cls-1" d="M499.14,196.78V193h3.73v3.72h-3.75Z" transform="translate(-199.11 -136)"/><path class="cls-1" d="M461.17,196.78V193h3.72v3.72h-3.75Z" transform="translate(-199.11 -136)"/><path class="cls-1" d="M404.14,193v3.67h-3.68V193Z" transform="translate(-199.11 -136)"/><path class="cls-1" d="M278.88,196.7V193h3.71v3.66Z" transform="translate(-199.11 -136)"/><path class="cls-1" d="M339.62,238.52v3.74H332.1v-3.72h7.54Z" transform="translate(-199.11 -136)"/><path class="cls-1" d="M651,234.75l0-3.83,0,0h3.82l0,0c0,1.28,0,2.55,0,3.83Z" transform="translate(-199.11 -136)"/><path d="M252.27,227.13h3.82v7.62h-3.82Z" transform="translate(-199.11 -136)"/><path d="M658.63,208.14h3.82V212h-3.82Z" transform="translate(-199.11 -136)"/><path d="M654.85,231H651v-3.82h3.82Z" transform="translate(-199.11 -136)"/><path d="M647.23,219.53h3.83v3.75h-3.83Z" transform="translate(-199.11 -136)"/><path d="M689,219.53v3.83h-3.82v-3.83Z" transform="translate(-199.11 -136)"/></g></g></svg>